<?xml version="1.0" encoding="utf-8"?>
<!-- Generator: Adobe Illustrator 24.2.3, SVG Export Plug-In . SVG Version: 6.00 Build 0)  -->
<svg version="1.1" id="Layer_1" xmlns="http://www.w3.org/2000/svg" xmlns:xlink="http://www.w3.org/1999/xlink" x="0px" y="0px"
	 viewBox="0 0 35 35" style="enable-background:new 0 0 35 35;" xml:space="preserve">
<style type="text/css">
	.st0{fill:#FFFFFF;}
</style>
<g>
	<path class="st0" d="M32.2,9.4L29,3.5c-0.3-0.4-0.6-0.5-1.1-0.5H7C6.6,2.9,6.2,3.1,6,3.5L2.8,9.4c-0.2,0.3-0.3,0.5-0.3,0.8v20.4
		c0,0.7,0.6,1.4,1.4,1.4h27.3c0.7,0,1.4-0.6,1.4-1.4V10.2C32.5,9.9,32.4,9.6,32.2,9.4z M8,5.7h18.8l1.6,3.3H6.6L8,5.7z M29.8,29.3
		H5.2V11.5h24.5V29.3z"/>
	<path class="st0" d="M12.7,22.4c0.3,0.2,0.4,0.5,0.3,0.9l-0.6,3.5c-0.2,0.8,0.7,1.4,1.5,1l3.3-1.7c0.3-0.2,0.6-0.2,0.9,0l3.2,1.6
		c0.7,0.4,1.6-0.3,1.5-1L22,23.2c-0.1-0.4,0.1-0.6,0.3-0.9l2.6-2.4c0.6-0.5,0.3-1.5-0.5-1.7l-3.6-0.5C20.3,17.5,20,17.3,20,17
		l-1.6-3.2c-0.4-0.7-1.5-0.7-1.8,0L14.9,17c-0.2,0.3-0.5,0.5-0.7,0.5l-3.6,0.5c-0.8,0.1-1.2,1.1-0.5,1.7L12.7,22.4z"/>
</g>
</svg>
