<?xml version="1.0" encoding="utf-8"?>
<!-- Generator: Adobe Illustrator 24.2.3, SVG Export Plug-In . SVG Version: 6.00 Build 0)  -->
<svg version="1.1" id="Layer_1" xmlns="http://www.w3.org/2000/svg" xmlns:xlink="http://www.w3.org/1999/xlink" x="0px" y="0px"
	 viewBox="0 0 35 35" style="enable-background:new 0 0 35 35;" xml:space="preserve">
<style type="text/css">
	.st0{fill:#FFFFFF;}
</style>
<path class="st0" d="M29.7,21.9L19,16.2V15c2-0.6,3.4-2.4,3.4-4.4c0-2.5-2.2-4.6-4.8-4.6s-4.8,2.1-4.8,4.6c0,0.8,0.6,1.4,1.4,1.4
	s1.4-0.6,1.4-1.4c0-1,0.8-1.8,1.9-1.8c1.1,0,1.9,0.8,1.9,1.8s-0.8,1.8-1.9,1.8l-0.2,0.1l-0.7,0.4c-0.2,0.2-0.3,0.4-0.3,0.6l-0.1,2.8
	L5.4,21.9L5.2,22c-1,0.7-1.8,1.9-1.8,3.2C3.5,27.3,5.3,29,7.5,29h19.9c2.2,0,4-1.7,4-3.8C31.5,23.9,30.8,22.7,29.7,21.9z M6.6,25.7
	c0-0.1-0.1-0.2-0.1-0.2c-0.1-0.2-0.1-0.4,0-0.6c0-0.1,0.1-0.2,0.1-0.2c0.1-0.1,0.1-0.2,0.2-0.2l0.1-0.1l0,0l10.7-5.6l10.6,5.6
	c0.3,0.2,0.4,0.5,0.4,0.8c0,0.6-0.4,1-1,1h-20c-0.1,0-0.1,0-0.2,0s-0.2,0-0.2-0.1c-0.1,0-0.2-0.1-0.3-0.2
	C6.7,25.8,6.6,25.7,6.6,25.7z M17.3,13.1L17.3,13.1L17.3,13.1L17.3,13.1z M16.9,13.3L16.9,13.3L16.9,13.3L16.9,13.3z"/>
</svg>
