<?xml version="1.0" encoding="utf-8"?>
<!-- Generator: Adobe Illustrator 24.2.3, SVG Export Plug-In . SVG Version: 6.00 Build 0)  -->
<svg version="1.1" id="Layer_1" xmlns="http://www.w3.org/2000/svg" xmlns:xlink="http://www.w3.org/1999/xlink" x="0px" y="0px"
	 viewBox="0 0 18 17" style="enable-background:new 0 0 18 17;" xml:space="preserve">
<style type="text/css">
	.st0{fill:#00CE93;}
</style>
<path class="st0" d="M3.5,10.5c0.3,0.2,0.4,0.6,0.3,1.1l-0.7,4.1c-0.2,0.9,0.8,1.7,1.7,1.2l3.8-2c0.3-0.2,0.7-0.2,1.1,0l3.7,1.9
	c0.8,0.4,1.9-0.3,1.7-1.2l-0.7-4.1c-0.1-0.4,0.1-0.7,0.3-1.1l3.1-2.8c0.7-0.6,0.3-1.8-0.6-2l-4.2-0.6c-0.4-0.1-0.7-0.3-0.8-0.6
	l-1.9-3.7c-0.4-0.8-1.7-0.8-2.1,0L6.1,4.3C5.8,4.6,5.5,4.8,5.2,4.9L1,5.6c-0.9,0.1-1.4,1.3-0.6,2L3.5,10.5z"/>
</svg>
