<?xml version="1.0" encoding="utf-8"?>
<!-- Generator: Adobe Illustrator 24.2.3, SVG Export Plug-In . SVG Version: 6.00 Build 0)  -->
<svg version="1.1" id="Layer_1" xmlns="http://www.w3.org/2000/svg" xmlns:xlink="http://www.w3.org/1999/xlink" x="0px" y="0px"
	 viewBox="0 0 35 35" style="enable-background:new 0 0 35 35;" xml:space="preserve">
<style type="text/css">
	.st0{fill:#FFFFFF;}
</style>
<g>
	<path class="st0" d="M14.3,14.8v-6l3.8,3.6c0.6,0.6,1.7,0.6,2.3,0l0,0c0.6-0.6,0.6-1.6,0-2.2l-6.6-6.3c-0.6-0.6-1.7-0.6-2.3,0
		L5,10.1c-0.6,0.6-0.6,1.6,0,2.2l0,0c0.6,0.6,1.7,0.6,2.3,0L11,8.7v6l-7,6.7c-0.6,0.6-0.6,1.6,0,2.2l0,0c0.6,0.6,1.7,0.6,2.3,0
		l4.7-4.6v9.7c0,0.9,0.7,1.6,1.7,1.6l0,0c0.9,0,1.7-0.7,1.7-1.6v-9.6l4.7,4.6c0.6,0.6,1.7,0.6,2.3,0l0,0c0.6-0.6,0.6-1.6,0-2.2
		L14.3,14.8z"/>
	<path class="st0" d="M28.7,22.8L28.7,22.8c0,0.2-0.1,0.3-0.4,0.2l0,0c-1.2-0.2-2.5,0-3.9,0.5c-2.8,1.2-4.3,3.9-3.3,5.9
		s4,2.6,6.8,1.4c2.2-1,3.6-2.7,3.7-4.5l0,0v-0.2l0,0V10.9c0-1-1.2-1.4-1.8-0.6l0,0c-0.6,0.7-1,1.6-1,2.5V22.8z"/>
</g>
</svg>
