<?xml version="1.0" encoding="utf-8"?>
<!-- Generator: Adobe Illustrator 24.2.3, SVG Export Plug-In . SVG Version: 6.00 Build 0)  -->
<svg version="1.1" id="Layer_1" xmlns="http://www.w3.org/2000/svg" xmlns:xlink="http://www.w3.org/1999/xlink" x="0px" y="0px"
	 viewBox="0 0 35 35" style="enable-background:new 0 0 35 35;" xml:space="preserve">
<style type="text/css">
	.st0{fill:#FFFFFF;}
</style>
<g>
	<path class="st0" d="M17.5,10.2c-4.1,0-7.4,3.3-7.4,7.3s3.4,7.3,7.4,7.3s7.4-3.3,7.4-7.3S21.6,10.2,17.5,10.2z M17.5,22
		c-2.6,0-4.6-2-4.6-4.5s2-4.5,4.6-4.5s4.6,2,4.6,4.5S20.1,22,17.5,22z"/>
	<path class="st0" d="M17.8,8.4c0.8,0,1.5-0.7,1.5-1.5V4c0-0.8-0.7-1.5-1.5-1.5S16.3,3.3,16.3,4v3C16.3,7.8,17,8.4,17.8,8.4z"/>
	<path class="st0" d="M25,12.1c0.4,0,0.8-0.2,1.1-0.4l2.6-2.6c0.3-0.3,0.4-0.6,0.4-1.1s-0.2-0.8-0.4-1.1c-0.5-0.6-1.5-0.6-2.1,0
		L24,9.5c-0.6,0.5-0.6,1.5,0,2.1C24.2,12,24.6,12.1,25,12.1z"/>
	<path class="st0" d="M8.3,11.7c0.3,0.3,0.6,0.4,1.1,0.4s0.8-0.2,1.1-0.4c0.6-0.5,0.6-1.5,0-2.1L7.8,7C7.2,6.4,6.3,6.4,5.7,7
		s-0.6,1.5,0,2.1L8.3,11.7z"/>
	<path class="st0" d="M17.2,26.6c-0.8,0-1.5,0.7-1.5,1.5v3c0,0.8,0.7,1.5,1.5,1.5c0.8,0,1.5-0.7,1.5-1.5v-3
		C18.7,27.2,18,26.6,17.2,26.6z"/>
	<path class="st0" d="M8.9,23.3l-2.7,2.6c-0.3,0.3-0.4,0.6-0.4,1.1S6,27.7,6.3,28c0.3,0.3,0.6,0.4,1.1,0.4c0.4,0,0.8-0.2,1.1-0.4
		l2.6-2.6c0.3-0.3,0.4-0.6,0.4-1.1s-0.2-0.8-0.4-1.1C10.4,22.8,9.4,22.8,8.9,23.3z"/>
	<path class="st0" d="M26.6,23.3c-0.3-0.3-0.6-0.4-1.1-0.4l0,0c-0.4,0-0.8,0.2-1.1,0.4s-0.4,0.6-0.4,1.1s0.2,0.8,0.4,1.1l2.6,2.6
		c0.3,0.3,0.6,0.4,1.1,0.4c0.4,0,0.8-0.2,1.1-0.4c0.6-0.5,0.6-1.5,0-2.1L26.6,23.3z"/>
	<path class="st0" d="M8.3,17.6c0-0.8-0.7-1.5-1.5-1.5H3.5c-0.8,0-1.5,0.7-1.5,1.5s0.7,1.5,1.5,1.5h3.3C7.6,19,8.3,18.4,8.3,17.6z"
		/>
	<path class="st0" d="M31.5,16.1h-3.9c-0.8,0-1.5,0.6-1.5,1.5c0,0.9,0.7,1.5,1.5,1.5h3.9c0.8,0,1.5-0.7,1.5-1.5S32.3,16.1,31.5,16.1
		z"/>
</g>
</svg>
