<svg width="15" height="14" viewBox="0 0 15 14" fill="none" xmlns="http://www.w3.org/2000/svg">
<path d="M7.76089 2.98267C4.89133 2.98267 3.45654 4.86962 3.45654 6.39136C3.45654 6.69571 3.52176 6.93919 3.58698 7.18267C3.78263 7.79136 4.10872 8.21745 4.69567 8.46093C4.82611 8.5218 4.95654 8.46093 5.02176 8.33919C5.02176 8.21745 5.08698 7.97397 5.1522 7.9131C5.21741 7.79136 5.1522 7.73049 5.08698 7.60875C4.95654 7.42614 4.82611 7.24354 4.76089 7.06093C4.69567 6.93919 4.69567 6.75658 4.69567 6.57397C4.69567 5.17397 5.86959 3.95658 7.69567 3.95658C9.32611 3.95658 10.2392 4.86962 10.2392 6.02614C10.2392 6.39136 10.1739 6.69571 10.1087 7.06093C9.84785 8.15658 9.19567 8.94788 8.28263 8.94788C7.63046 8.94788 7.17393 8.46093 7.30437 7.9131C7.36959 7.60875 7.50002 7.24354 7.63046 6.93919C7.76089 6.57397 7.82611 6.26962 7.82611 5.96527C7.82611 5.53919 7.56524 5.17397 6.97828 5.17397C6.32611 5.17397 5.80437 5.78267 5.80437 6.57397C5.80437 6.75658 5.80437 6.87832 5.86959 7.00006C5.9348 7.3044 6.00002 7.48701 6.00002 7.48701C6.00002 7.48701 5.34785 9.9218 5.21741 10.3479C4.95654 11.2609 5.1522 12.2957 5.21741 12.4174C5.21741 12.4783 5.34785 12.4783 5.34785 12.4783C5.41306 12.4174 6.19567 11.5653 6.45654 10.7131C6.52176 10.4696 6.91306 9.19136 6.91306 9.19136C7.10872 9.55658 7.76089 9.86093 8.41306 9.86093C9.97828 9.86093 11.1522 8.82614 11.5435 7.24354C11.6087 6.87832 11.6739 6.5131 11.6739 6.08701C11.6087 4.44354 10.1087 2.98267 7.76089 2.98267Z" fill="black"/>
<path d="M7.50004 12.9653C3.91309 12.9653 0.913086 10.1653 0.913086 6.8175C0.913086 3.40881 3.91309 0.669678 7.50004 0.669678C11.087 0.669678 14.087 3.40881 14.087 6.8175C14.087 10.1653 11.1522 12.9653 7.50004 12.9653ZM7.50004 1.58272C4.43483 1.58272 1.89135 3.89576 1.89135 6.8175C1.89135 9.67837 4.36961 12.0523 7.50004 12.0523C10.6305 12.0523 13.1087 9.73924 13.1087 6.8175C13.1087 3.89576 10.5653 1.58272 7.50004 1.58272Z" fill="black"/>
</svg>
