<svg width="21" height="20" viewBox="0 0 21 20" fill="none" xmlns="http://www.w3.org/2000/svg">
<path d="M4.42103 12.2525C4.77164 12.4876 4.88851 12.9577 4.77164 13.4278L3.95355 18.0113C3.71981 19.069 4.88851 19.8917 5.82347 19.3041L10.0308 17.0711C10.3814 16.836 10.8489 16.836 11.1995 17.0711L15.29 19.1865C16.2249 19.6566 17.3936 18.834 17.1599 17.8938L16.3418 13.3103C16.2249 12.8402 16.4587 12.4876 16.6924 12.135L20.0817 8.96182C20.8998 8.25667 20.4323 6.96389 19.3804 6.72884L14.7056 6.02369C14.2381 5.90617 13.8875 5.67111 13.7707 5.31854L11.667 1.20515C11.1995 0.264949 9.79707 0.264949 9.32959 1.20515L7.22592 5.31854C6.99218 5.67111 6.64157 5.90617 6.29096 6.02369L1.61614 6.72884C0.564306 6.84637 0.0968239 8.13915 0.914917 8.96182L4.42103 12.2525Z" fill="#00CE93" stroke="#00CE93"/>
</svg>
