<svg width="22" height="21" viewBox="0 0 22 21" fill="none" xmlns="http://www.w3.org/2000/svg">
<path d="M4.91932 12.7525C5.26993 12.9876 5.3868 13.4577 5.26993 13.9278L4.45184 18.5113C4.2181 19.569 5.3868 20.3917 6.32177 19.8041L10.5291 17.5711C10.8797 17.336 11.3472 17.336 11.6978 17.5711L15.7883 19.6865C16.7232 20.1566 17.8919 19.334 17.6582 18.3938L16.8401 13.8103C16.7232 13.3402 16.957 12.9876 17.1907 12.635L20.58 9.46182C21.398 8.75667 20.9306 7.46389 19.8787 7.22884L15.2039 6.52369C14.7364 6.40617 14.3858 6.17111 14.269 5.81854L12.1653 1.70515C11.6978 0.764949 10.2954 0.764949 9.82788 1.70515L7.72421 5.81854C7.49047 6.17111 7.13986 6.40617 6.78925 6.52369L2.11443 7.22884C1.0626 7.34637 0.595115 8.63915 1.41321 9.46182L4.91932 12.7525Z" stroke="#BDBDBD" stroke-width="2"/>
</svg>
