<svg width="36" height="48" viewBox="0 0 36 48" fill="none" xmlns="http://www.w3.org/2000/svg">
<path d="M23.4304 8.83333C25.8375 8.83333 27.8471 6.80167 27.8471 4.41667C27.8471 3.24529 27.3818 2.1219 26.5535 1.29361C25.7252 0.465326 24.6018 0 23.4304 0C20.9792 0 19.0138 1.94333 19.0138 4.41667C19.0138 6.80167 20.9792 8.83333 23.4304 8.83333ZM15.4583 39.485L17.6667 29.8125L22.3263 34.2292V47.4792H26.7429V30.9167L22.0833 26.5L23.4304 19.875C24.9436 21.6088 26.8104 22.9986 28.9054 23.9509C31.0004 24.9031 33.275 25.3958 35.5763 25.3958V20.9792C31.3583 20.9792 27.8471 18.7708 26.0583 15.635L23.85 12.1458C22.9667 10.7767 21.6417 9.9375 20.1179 9.9375C19.4333 9.9375 19.0138 10.1142 18.3292 10.1142L6.86792 14.9725V25.3958H11.2846V17.8433L15.2375 16.2975L11.7042 34.2292L0.883333 32.0208L0 36.4375L15.4583 39.485Z" fill="black"/>
</svg>
