<svg width="20" height="16" viewBox="0 0 20 16" fill="none" xmlns="http://www.w3.org/2000/svg">
<path fill-rule="evenodd" clip-rule="evenodd" d="M10 1.01597e-07C12.2309 1.01597e-07 13.9701 -0.000696277 15.2891 0.113281C16.5841 0.225196 17.683 0.458847 18.4893 1.08594C19.3487 1.75459 19.6932 2.71707 19.8496 3.81152C20.0027 4.88328 20 6.28123 20 8C20 9.71877 20.0027 11.1167 19.8496 12.1885C19.6932 13.2829 19.3487 14.2454 18.4893 14.9141C17.683 15.5412 16.5841 15.7748 15.2891 15.8867C13.9701 16.0007 12.2309 16 10 16C7.76916 16 6.02995 16.0007 4.71094 15.8867C3.41593 15.7748 2.31701 15.5412 1.51075 14.9141C0.651288 14.2454 0.306761 13.2829 0.150394 12.1885C-0.00271436 11.1167 3.19372e-06 9.71877 3.19372e-06 8C3.19372e-06 6.28123 -0.00271436 4.88328 0.150394 3.81152C0.306761 2.71707 0.651287 1.75459 1.51075 1.08594C2.31701 0.458846 3.41593 0.225196 4.71094 0.113281C6.02995 -0.000696479 7.76916 1.00927e-07 10 1.01597e-07ZM10 2C7.73094 2 6.09503 2.00071 4.88282 2.10547C3.64712 2.21227 3.05807 2.41628 2.73926 2.66406C2.474 2.87037 2.25573 3.22063 2.13086 4.09473C2.00274 4.99171 2 6.21886 2 8C2 9.78114 2.00274 11.0083 2.13086 11.9053C2.25573 12.7794 2.474 13.1296 2.73926 13.3359C3.05807 13.5837 3.64712 13.7877 4.88282 13.8945C6.09503 13.9993 7.73094 14 10 14C12.2691 14 13.905 13.9993 15.1172 13.8945C16.3529 13.7877 16.9419 13.5837 17.2607 13.3359C17.526 13.1296 17.7443 12.7794 17.8691 11.9053C17.9973 11.0083 18 9.78114 18 8C18 6.21886 17.9973 4.99171 17.8691 4.09473C17.7443 3.22063 17.526 2.87037 17.2607 2.66406C16.9419 2.41628 16.3529 2.21227 15.1172 2.10547C13.905 2.00071 12.2691 2 10 2ZM14 8L8 11.5V4.5L14 8Z" fill="black"/>
</svg>
